inDegrees=yes
name=ik_S56_A02_T02
DataType=double
version=3
OpenSimVersion=4.3-2021-08-27-4bc7ad9
endheader
time	pelvis_tilt	pelvis_list	pelvis_rotation	pelvis_tx	pelvis_ty	pelvis_tz	hip_flexion_r	hip_adduction_r	hip_rotation_r	knee_angle_r	knee_angle_r_beta	ankle_angle_r	subtalar_angle_r	mtp_angle_r	hip_flexion_l	hip_adduction_l	hip_rotation_l	knee_angle_l	knee_angle_l_beta	ankle_angle_l	subtalar_angle_l	mtp_angle_l	lumbar_extension	lumbar_bending	lumbar_rotation	arm_flex_r	arm_add_r	arm_rot_r	elbow_flex_r	pro_sup_r	wrist_flex_r	wrist_dev_r	arm_flex_l	arm_add_l	arm_rot_l	elbow_flex_l	pro_sup_l	wrist_flex_l	wrist_dev_l
0	0	0	0	0	0.9399999999999999	0	0	0	0	0	0	0	0	0	0	0	0	0	0	0	0	0	0	0	0	0	0	0	0	89.99999999963507	0	0	0	0	0	0	89.99999999869995	0	0
0.02	-0.550337578106363	-1.065819699471454	88.06514011244816	0	0.9399999999999999	0	6.161840611570891	1.426311737551991	-4.260413598251948	11.20861406596991	0.1956272200365239	0	0	0	2.487923974740513	1.34036941555933	-6.0564707616116	8.282301544970052	0.1445534316027406	0	0	0	0	0	0	1.923349114478364	-1.923349114478364	0.3421308877950984	9.452574549972699	89.65786913193777	0	0	1.923349114478364	-1.923349114478364	0.3421308877950984	9.452574549972699	89.65786913106679	0	0
0.04	-0.5226936791765716	-1.036667282948809	87.98720448001714	0	0.9399999999999999	0	6.242617569224286	1.366446251904849	-4.221834672523169	11.47259318157223	0.2002345247602871	0	0	0	2.562290517732225	1.497329447993382	-5.97823990421103	8.485029703673886	0.1480917054586281	0	0	0	0	0	0	1.932665721714092	-1.932665721714092	0.3439596686278608	9.532423647733356	89.65604035121449	0	0	1.932665721714092	-1.932665721714092	0.3439596686278608	9.532423647733356	89.65604035034387	0	0
0.06	-0.5296183157943176	-1.01563528423618	87.95899477901386	0	0.9399999999999999	0	6.338973487937239	1.237104859669759	-4.238334524009614	11.65258341544732	0.203375946962842	0	0	0	2.60233489137889	1.627366204755166	-5.87777531166114	8.614794314862554	0.1503565251764406	0	0	0	0	0	0	1.937955233222076	-1.937955233222076	0.3449971364945672	9.577454245515094	89.65500288340992	0	0	1.937955233222076	-1.937955233222076	0.3449971364945672	9.577454245515094	89.65500288253943	0	0
0.08	-0.4664872848346947	-0.9879793718000378	87.86172477468766	0	0.9399999999999999	0	6.324436365450342	1.288752835104967	-4.144730976320199	11.75966472068897	0.2052448683066418	0	0	0	2.600622201821333	1.555937440485354	-5.969011199066132	8.802874284756586	0.1536391399081433	0	0	0	0	0	0	2.180052659267864	-2.180052659267864	0.391391362682164	11.04229998832595	89.60860865998106	0	0	2.180052659267864	-2.180052659267864	0.391391362682164	11.04229998832595	89.60860865911927	0	0
0.1	-0.4024460778152991	-0.9544169459774142	87.76796110430671	0	0.9399999999999999	0	6.342831475600394	1.258068899863384	-4.165565905182621	11.76216311491588	0.2052884735119143	0	0	0	2.610626280032586	1.578202064689979	-5.9774211322553	8.806984530888716	0.1537108772362163	0	0	0	0	0	0	2.180408880848856	-2.180408880848856	0.3914590582821205	11.0447564430868	89.60854096438513	0	0	2.180408880848856	-2.180408880848856	0.3914590582821205	11.0447564430868	89.60854096352334	0	0
0.12	-0.3885342131503218	-0.9129672267901431	87.65255020470329	0	0.9399999999999999	0	6.428236726964725	1.169105127531164	-4.181869266151547	11.95991034342827	0.2087398137361491	0	0	0	2.652101302333386	1.680561726837695	-6.020017294687617	9.069468890504529	0.1582920935465011	0	0	0	0	0	0	2.188352430596452	-2.188352430596452	0.3930127936057267	11.10741217229453	89.60698722915443	0	0	2.188352430596452	-2.188352430596452	0.3930127936057267	11.10741217229453	89.60698722829299	0	0
0.14	-0.3120150028018436	-0.8700732280130108	87.55219267513748	0	0.9399999999999999	0	6.456801852164729	1.137104456724747	-4.172447067637775	11.9669481545702	0.2088626467127094	0	0	0	2.668343794384602	1.698947002406986	-6.014844674677963	9.074868217312256	0.1583863295766871	0	0	0	0	0	0	2.18870940361652	-2.18870940361652	0.3930804852469914	11.10984223330229	89.60691953751719	0	0	2.18870940361652	-2.18870940361652	0.3930804852469914	11.10984223330229	89.60691953665575	0	0
0.16	-0.2589532154642311	-0.8296306081489554	87.28792559125674	0	0.9399999999999999	0	6.550001406283718	1.080491840090894	-3.975639424923972	12.20448663132823	0.2130084752323089	0	0	0	2.714395426487382	1.748624593266738	-6.185472501800739	9.24559882981143	0.1613661408987443	0	0	0	0	0	0	2.193397209531123	-2.193397209531123	0.3939951787992829	11.14632814034959	89.60600484401955	0	0	2.193397209531123	-2.193397209531123	0.3939951787992829	11.14632814034959	89.60600484315837	0	0
0.18	-0.2029585314403696	-0.8008745362837497	87.17008314171908	0	0.9399999999999999	0	6.873263674825828	0.8803800602560508	-4.170287641116925	12.74106095801376	0.2223734639146431	0	0	0	2.774234615767214	1.814037404908719	-6.179971112841918	9.470119882219137	0.1652847725033015	0	0	0	0	0	0	2.201751078884551	-2.201751078884551	0.3956293398068378	11.21193641659163	89.60437068310975	0	0	2.201751078884551	-2.201751078884551	0.3956293398068378	11.21193641659163	89.6043706822489	0	0
0.2	-0.1585764196907904	-0.7721180299519528	86.97510749330044	0	0.9399999999999999	0	7.027214279596522	0.764047952944036	-4.114634416977021	13.11589619366342	0.2289155729292185	0	0	0	2.824456737546126	1.888444085716463	-6.293978838590069	9.664872213951684	0.1686838419179707	0	0	0	0	0	0	2.207492469044234	-2.207492469044234	0.396750790074674	11.25664532201482	89.60324923290904	0	0	2.207492469044234	-2.207492469044234	0.396750790074674	11.25664532201482	89.60324923204827	0	0
0.22	-0.09779114432611626	-0.7872339856488627	86.84738704095025	0	0.9399999999999999	0	7.282162534584172	0.6701586647676027	-4.111232673256584	13.53248733318896	0.2361864599485742	0	0	0	3.100749145276934	2.026430671088947	-6.271727509986462	10.15908041409784	0.1773094022008762	0	0	0	0	0	0	2.215801329548518	-2.215801329548518	0.3983752388455528	11.32146170912609	89.6016247842354	0	0	2.215801329548518	-2.215801329548518	0.3983752388455528	11.32146170912609	89.60162478337483	0	0
0.24	-0.06761995050080653	-0.7863972336003855	86.79167491707118	0	0.9399999999999999	0	7.533776555415132	0.5170797945278257	-4.198062584404089	13.89434801317673	0.2425021202478664	0	0	0	3.265793315825422	2.136274953129862	-6.112701868095282	10.44492357864235	0.1822983065664978	0	0	0	0	0	0	2.223574842720595	-2.223574842720595	0.3998954821327968	11.38201093313782	89.60010454103899	0	0	2.223574842720595	-2.223574842720595	0.3998954821327968	11.38201093313782	89.60010454017879	0	0
0.26	-0.006585226334419072	-0.8039367134831626	86.57904208399536	0	0.9399999999999999	0	7.820592459336342	0.4517167140044263	-4.041475404041526	14.29047585102497	0.2494158552771245	0	0	0	3.285859844471365	2.061356854207189	-6.311237856530496	10.60804642590252	0.1851453373364157	0	0	0	0	0	0	2.229890307044409	-2.229890307044409	0.4011261593731594	11.4303079938065	89.59887386387213	0	0	2.229890307044409	-2.229890307044409	0.4011261593731594	11.4303079938065	89.59887386301222	0	0
0.28	0.1092493584337556	-0.8267404729175921	86.27048466314469	0	0.9399999999999999	0	7.832731883827781	0.5557187048571888	-3.769861168596174	14.48556839418435	0.2528208625013447	0	0	0	3.485569679294136	2.074454006479376	-6.299116335178537	10.73800459646773	0.1874135353026469	0	0	0	0	0	0	2.2353728244388	-2.2353728244388	0.4021965099745452	11.47250736823892	89.59780351333474	0	0	2.2353728244388	-2.2353728244388	0.4021965099745452	11.47250736823892	89.59780351247501	0	0
0.3	0.1380176812807887	-0.8362052664445898	86.18732558971723	0	0.9399999999999999	0	8.129508647679833	0.386643889249807	-3.793636029696174	14.95572309278991	0.2610266099857333	0	0	0	3.671318766046578	2.214743318294099	-5.955568790232433	11.00756949757894	0.1921183303748505	0	0	0	0	0	0	2.242754343861887	-2.242754343861887	0.4036396395705804	11.52954354672448	89.59636038382499	0	0	2.242754343861887	-2.242754343861887	0.4036396395705804	11.52954354672448	89.59636038296557	0	0
0.32	0.2206498552194768	-0.8654308270455081	85.90333410743222	0	0.9399999999999999	0	8.520375521864521	0.3384476748699871	-3.664249400680275	15.50561613984887	0.2706240541907363	0	0	0	3.886096790912879	2.252318075428869	-5.790535739431711	11.19654275748893	0.1954165359585068	0	0	0	0	0	0	2.251211837366681	-2.251211837366681	0.4052928072555164	11.59468003674179	89.59470721623886	0	0	2.251211837366681	-2.251211837366681	0.4052928072555164	11.59468003674179	89.59470721537981	0	0
0.34	0.3115960994239682	-0.9370672851474117	85.56434770174651	0	0.9399999999999999	0	8.948269405371269	0.2811277091375931	-3.487966697457549	16.15655343304071	0.2819850531809535	0	0	0	4.090482588274826	2.299038493883401	-5.687932699777564	11.38821987237566	0.1987619327140037	0	0	0	0	0	0	2.259113315810397	-2.259113315810397	0.406836724888639	11.65526508294243	89.59316329869804	0	0	2.259113315810397	-2.259113315810397	0.406836724888639	11.65526508294243	89.59316329783927	0	0
0.36	0.4208250850619618	-1.099811314409387	85.01902350328773	0	0.9399999999999999	0	9.807698836902475	0.179644571481427	-3.553370871680984	17.34905451526622	0.3027981233993844	0	0	0	4.376955584700317	2.28695186920786	-5.859722679110964	11.57328991158859	0.2019920142450643	0	0	0	0	0	0	2.268341509469855	-2.268341509469855	0.4086399125527151	11.72581535067535	89.59136011114181	0	0	2.268341509469855	-2.268341509469855	0.4086399125527151	11.72581535067535	89.59136011028332	0	0
0.3800000000000001	0.4705787305960126	-1.267393679317887	84.57841716742486	0	0.9399999999999999	0	9.960014151463264	0.286733983278261	-3.1264049233156	17.67130865337415	0.3084225191375444	0	0	0	4.658417221071742	2.301092412172558	-5.885410217140755	11.67769797667837	0.2038142787465176	0	0	0	0	0	0	2.275750297885629	-2.275750297885629	0.4100862134894452	11.78209090897167	89.58991381029161	0	0	2.275750297885629	-2.275750297885629	0.4100862134894452	11.78209090897167	89.58991380943331	0	0
0.4000000000000001	0.4794940934841601	-1.488016766395506	84.10323239193407	0	0.9399999999999999	0	10.84634042001071	0.07670347674012827	-3.578371489878201	18.6350568844643	0.3252430989303385	0	0	0	5.027823558744757	2.339916988099657	-5.834809867227179	11.7254654385662	0.2046479782317811	0	0	0	0	0	0	2.283771391650248	-2.283771391650248	0.4116535105732452	11.84309809648122	89.58834651330152	0	0	2.283771391650248	-2.283771391650248	0.4116535105732452	11.84309809648122	89.58834651244351	0	0
0.4200000000000001	0.4816121210967471	-1.702971647299411	83.57600929157208	0	0.9399999999999999	0	11.40469662322453	0.01208046842857425	-3.608558556439752	19.11019724705876	0.3335358626667317	0	0	0	5.259425128915647	2.261756382175523	-6.259473020629017	11.65041926789296	0.2033381754625194	0	0	0	0	0	0	2.293064348659808	-2.293064348659808	0.4134684595737979	11.91346177983822	89.58653156440948	0	0	2.293064348659808	-2.293064348659808	0.4134684595737979	11.91346177983822	89.58653156355179	0	0
0.4400000000000001	0.4539929258774736	-1.957259127366445	83.03503100588956	0	0.9399999999999999	0	11.98835750729579	-0.03275028773038303	-3.553336463490047	19.48847890155668	0.340138123037612	0	0	0	5.556504074620085	2.180581782617517	-6.698613546243921	11.56896832603268	0.201916588348207	0	0	0	0	0	0	2.30315874477906	-2.30315874477906	0.4154396868005098	11.98962146379303	89.58456033730064	0	0	2.30315874477906	-2.30315874477906	0.4154396868005098	11.98962146379303	89.58456033644323	0	0
0.4600000000000001	0.4367675717542224	-2.096385456807547	82.72410507663349	0	0.9399999999999999	0	12.13200168631482	0.03066499608825777	-3.2820237012307	19.3872103642091	0.3383706536322178	0	0	0	5.736490927284891	2.141673456856267	-6.942527602459569	11.51462677180585	0.2009681493062979	0	0	0	0	0	0	2.307476549708839	-2.307476549708839	0.4162786708474864	12.02136176223437	89.58372135330379	0	0	2.307476549708839	-2.307476549708839	0.4162786708474864	12.02136176223437	89.58372135244647	0	0
0.4800000000000001	0.4012641760032642	-2.366704301703705	82.1086377290008	0	0.9399999999999999	0	12.68648214151458	-0.01039134727206909	-3.381089179992842	19.33558257290312	0.3374695786883959	0	0	0	6.049228326991477	2.082055995173364	-7.461463884104379	11.46272145550475	0.2000622306375547	0	0	0	0	0	0	2.311918343848573	-2.311918343848573	0.4171444841339518	12.05448411539742	89.58285554006906	0	0	2.311918343848573	-2.311918343848573	0.4171444841339518	12.05448411539742	89.58285553921186	0	0
